{
	"asset":{
		"generator":"Khronos glTF Blender I/O v3.6.28",
		"version":"2.0"
	},
	"scene":0,
	"scenes":[
		{
			"name":"Scene",
			"nodes":[
				1
			]
		}
	],
	"nodes":[
		{
			"mesh":0,
			"name":"sign_reserved_parking",
			"scale":[
				1.1582838296890259,
				0.8950616121292114,
				0.8950616121292114
			],
			"translation":[
				-0.0004583420231938362,
				0.4102805256843567,
				0.013102531433105469
			]
		},
		{
			"children":[
				0
			],
			"mesh":1,
			"name":"signpost_silver",
			"scale":[
				1,
				1.4762383699417114,
				1
			]
		}
	],
	"materials":[
		{
			"doubleSided":true,
			"name":"sign_reserved_parking",
			"pbrMetallicRoughness":{}
		},
		{
			"doubleSided":true,
			"name":"signpost_silver",
			"pbrMetallicRoughness":{}
		}
	],
	"meshes":[
		{
			"name":"Cube",
			"primitives":[
				{
					"attributes":{
						"POSITION":0,
						"NORMAL":1,
						"TEXCOORD_0":2,
						"TANGENT":3
					},
					"indices":4,
					"material":0
				}
			]
		},
		{
			"name":"Plane",
			"primitives":[
				{
					"attributes":{
						"POSITION":5,
						"NORMAL":6,
						"TEXCOORD_0":7,
						"TANGENT":8
					},
					"indices":9,
					"material":1
				}
			]
		}
	],
	"accessors":[
		{
			"bufferView":0,
			"componentType":5126,
			"count":210,
			"max":[
				0.12456019222736359,
				0.16539978981018066,
				0.004594025202095509
			],
			"min":[
				-0.1238132044672966,
				-0.16536998748779297,
				-0.004594023805111647
			],
			"type":"VEC3"
		},
		{
			"bufferView":1,
			"componentType":5126,
			"count":210,
			"type":"VEC3"
		},
		{
			"bufferView":2,
			"componentType":5126,
			"count":210,
			"type":"VEC2"
		},
		{
			"bufferView":3,
			"componentType":5126,
			"count":210,
			"type":"VEC4"
		},
		{
			"bufferView":4,
			"componentType":5123,
			"count":372,
			"type":"SCALAR"
		},
		{
			"bufferView":5,
			"componentType":5126,
			"count":12,
			"max":[
				0.02861815318465233,
				0.6194121241569519,
				0.006353819277137518
			],
			"min":[
				-0.02861815318465233,
				-0.6194121837615967,
				-0.006353819277137518
			],
			"type":"VEC3"
		},
		{
			"bufferView":6,
			"componentType":5126,
			"count":12,
			"type":"VEC3"
		},
		{
			"bufferView":7,
			"componentType":5126,
			"count":12,
			"type":"VEC2"
		},
		{
			"bufferView":8,
			"componentType":5126,
			"count":12,
			"type":"VEC4"
		},
		{
			"bufferView":9,
			"componentType":5123,
			"count":18,
			"type":"SCALAR"
		}
	],
	"bufferViews":[
		{
			"buffer":0,
			"byteLength":2520,
			"byteOffset":0,
			"target":34962
		},
		{
			"buffer":0,
			"byteLength":2520,
			"byteOffset":2520,
			"target":34962
		},
		{
			"buffer":0,
			"byteLength":1680,
			"byteOffset":5040,
			"target":34962
		},
		{
			"buffer":0,
			"byteLength":3360,
			"byteOffset":6720,
			"target":34962
		},
		{
			"buffer":0,
			"byteLength":744,
			"byteOffset":10080,
			"target":34963
		},
		{
			"buffer":0,
			"byteLength":144,
			"byteOffset":10824,
			"target":34962
		},
		{
			"buffer":0,
			"byteLength":144,
			"byteOffset":10968,
			"target":34962
		},
		{
			"buffer":0,
			"byteLength":96,
			"byteOffset":11112,
			"target":34962
		},
		{
			"buffer":0,
			"byteLength":192,
			"byteOffset":11208,
			"target":34962
		},
		{
			"buffer":0,
			"byteLength":36,
			"byteOffset":11400,
			"target":34963
		}
	],
	"buffers":[
		{
			"byteLength":11436,
			"uri":"sign_reserved_parking-1c504c68fd1270ec2b0575628c0dc1dd.bin"
		}
	]
}
