{
	"asset":{
		"generator":"Khronos glTF Blender I/O v3.6.28",
		"version":"2.0"
	},
	"extensionsUsed":[
		"KHR_materials_specular",
		"KHR_materials_ior"
	],
	"scene":0,
	"scenes":[
		{
			"name":"Scene",
			"nodes":[
				0
			]
		}
	],
	"nodes":[
		{
			"mesh":0,
			"name":"Cylinder",
			"scale":[
				0.10000002384185791,
				0.5391952991485596,
				0.10000002384185791
			]
		}
	],
	"materials":[
		{
			"doubleSided":true,
			"extensions":{
				"KHR_materials_specular":{
					"specularColorFactor":[
						0,
						0,
						0
					]
				},
				"KHR_materials_ior":{
					"ior":1.4500000476837158
				}
			},
			"name":"torchTexture",
			"pbrMetallicRoughness":{
				"baseColorTexture":{
					"index":0
				},
				"metallicFactor":0,
				"roughnessFactor":0.7227272987365723
			}
		}
	],
	"meshes":[
		{
			"name":"Cylinder",
			"primitives":[
				{
					"attributes":{
						"POSITION":0,
						"NORMAL":1,
						"TEXCOORD_0":2
					},
					"indices":3,
					"material":0
				}
			]
		}
	],
	"textures":[
		{
			"sampler":0,
			"source":0
		}
	],
	"images":[
		{
			"mimeType":"image/png",
			"name":"torchTexture.png",
			"uri":"../../assets/models/Torch/textures/torchTexture.png"
		}
	],
	"accessors":[
		{
			"bufferView":0,
			"componentType":5126,
			"count":32,
			"max":[
				0.9360174536705017,
				1.0483087301254272,
				1.080819845199585
			],
			"min":[
				-0.9360174536705017,
				-0.3700218200683594,
				-1.080819845199585
			],
			"type":"VEC3"
		},
		{
			"bufferView":1,
			"componentType":5126,
			"count":32,
			"type":"VEC3"
		},
		{
			"bufferView":2,
			"componentType":5126,
			"count":32,
			"type":"VEC2"
		},
		{
			"bufferView":3,
			"componentType":5123,
			"count":96,
			"type":"SCALAR"
		}
	],
	"bufferViews":[
		{
			"buffer":0,
			"byteLength":384,
			"byteOffset":0,
			"target":34962
		},
		{
			"buffer":0,
			"byteLength":384,
			"byteOffset":384,
			"target":34962
		},
		{
			"buffer":0,
			"byteLength":256,
			"byteOffset":768,
			"target":34962
		},
		{
			"buffer":0,
			"byteLength":192,
			"byteOffset":1024,
			"target":34963
		}
	],
	"samplers":[
		{
			"magFilter":9728,
			"minFilter":9984
		}
	],
	"buffers":[
		{
			"byteLength":1216,
			"uri":"torch-e7402b6c4d5259b0704ff75e750b6bc8.bin"
		}
	]
}
