{
	"asset":{
		"generator":"Khronos glTF Blender I/O v3.6.28",
		"version":"2.0"
	},
	"extensionsUsed":[
		"KHR_materials_specular",
		"KHR_materials_ior",
		"KHR_materials_unlit"
	],
	"scene":0,
	"scenes":[
		{
			"name":"Scene",
			"nodes":[
				19
			]
		}
	],
	"nodes":[
		{
			"mesh":1,
			"name":"Emitter",
			"rotation":[
				0,
				-1.5894572413799324e-07,
				0,
				0.9999999403953552
			],
			"scale":[
				0.2824075222015381,
				0,
				0.2824075222015381
			],
			"translation":[
				0,
				2.2086496353149414,
				0
			]
		},
		{
			"name":"Fire",
			"rotation":[
				0,
				-1.1920930376163597e-07,
				0,
				1
			],
			"scale":[
				0.9413583874702454,
				0.9413586258888245,
				0.9413583874702454
			],
			"translation":[
				0,
				2.2086496353149414,
				0
			]
		},
		{
			"name":"Fire.001",
			"rotation":[
				0,
				-1.1920930376163597e-07,
				0,
				1
			],
			"scale":[
				0.4798664152622223,
				0.47986653447151184,
				0.4798664152622223
			],
			"translation":[
				0,
				3.1219534873962402,
				0
			]
		},
		{
			"children":[
				0,
				1,
				2
			],
			"name":"body1",
			"rotation":[
				0,
				1.1920927533992653e-07,
				0,
				1
			],
			"scale":[
				1,
				0.9999998807907104,
				1
			],
			"translation":[
				0,
				1.0000001192092896,
				0
			]
		},
		{
			"name":"leg1Left",
			"rotation":[
				0.6226750612258911,
				-0.07493702322244644,
				0.3173812925815582,
				0.7112870812416077
			],
			"scale":[
				0.9999998807907104,
				0.9999998807907104,
				0.9999998807907104
			],
			"translation":[
				0,
				0.9626366496086121,
				1.341104507446289e-07
			]
		},
		{
			"children":[
				4
			],
			"name":"leg0Left",
			"rotation":[
				0.6503916382789612,
				0.4331178069114685,
				-0.6128542423248291,
				0.11751393228769302
			],
			"scale":[
				1.0000001192092896,
				1.000000238418579,
				1
			],
			"translation":[
				0.7595247626304626,
				0.5176569223403931,
				-0.5231823325157166
			]
		},
		{
			"name":"leg1Right",
			"rotation":[
				0.6226750612258911,
				0.07493702322244644,
				-0.3173812925815582,
				0.7112870812416077
			],
			"scale":[
				0.9999998807907104,
				0.9999998807907104,
				0.9999998807907104
			],
			"translation":[
				0,
				0.9626366496086121,
				1.341104507446289e-07
			]
		},
		{
			"children":[
				6
			],
			"name":"leg0Right",
			"rotation":[
				0.6503916382789612,
				-0.4331178069114685,
				0.6128542423248291,
				0.11751393228769302
			],
			"scale":[
				1.0000001192092896,
				1.000000238418579,
				1
			],
			"translation":[
				-0.7595247626304626,
				0.5176569223403931,
				-0.5231823325157166
			]
		},
		{
			"name":"leg1Back",
			"rotation":[
				0.17235851287841797,
				0.18124867975711823,
				0.6773091554641724,
				0.691877007484436
			],
			"scale":[
				1,
				0.9999999403953552,
				0.9999998807907104
			],
			"translation":[
				-1.7974525690078735e-07,
				0.9626367688179016,
				1.210719347000122e-08
			]
		},
		{
			"children":[
				8
			],
			"name":"leg0Back",
			"rotation":[
				0.7784316539764404,
				0.2452569156885147,
				0.4389120042324066,
				0.37583184242248535
			],
			"scale":[
				0.9999998807907104,
				0.9999998807907104,
				0.9999996423721313
			],
			"translation":[
				-0.0439457893371582,
				0.5176569223403931,
				0.9212308526039124
			]
		},
		{
			"mesh":2,
			"name":"Wicker",
			"scale":[
				0.061427779495716095,
				0.29781004786491394,
				0.061427779495716095
			],
			"translation":[
				0,
				1.2010504007339478,
				0
			]
		},
		{
			"children":[
				10
			],
			"mesh":3,
			"name":"Cylinder",
			"rotation":[
				-2.292998715347494e-07,
				1.3524219966143392e-08,
				3.182713204097354e-09,
				1
			],
			"scale":[
				1.0309152603149414,
				1.2103294134140015,
				1.0309152603149414
			],
			"translation":[
				-7.150618319684554e-09,
				1.12335205078125,
				-5.151687219040468e-07
			]
		},
		{
			"children":[
				3,
				5,
				7,
				9,
				11
			],
			"name":"body0",
			"translation":[
				0,
				5.960464477539063e-08,
				0
			]
		},
		{
			"name":"leg2Left",
			"rotation":[
				-0.7046032547950745,
				-0.5601071715354919,
				-0.05945010483264923,
				0.4316016435623169
			],
			"translation":[
				0.985941469669342,
				-0.8019424676895142,
				-0.6170607209205627
			]
		},
		{
			"name":"leg2Right",
			"rotation":[
				-0.7046032547950745,
				0.5601071715354919,
				0.05945010483264923,
				0.4316016435623169
			],
			"translation":[
				-0.985941469669342,
				-0.8019424676895142,
				-0.6170607209205627
			]
		},
		{
			"name":"leg2.002",
			"rotation":[
				0.29056429862976074,
				-0.6494505405426025,
				-0.6446490287780762,
				0.2796676456928253
			],
			"scale":[
				0.9999999403953552,
				0.9999998807907104,
				0.9999999403953552
			],
			"translation":[
				-0.004298090934753418,
				-0.8019424676895142,
				1.1631104946136475
			]
		},
		{
			"mesh":0,
			"name":"leg1",
			"skin":0
		},
		{
			"mesh":4,
			"name":"leg2",
			"skin":0
		},
		{
			"mesh":5,
			"name":"leg3",
			"skin":0
		},
		{
			"children":[
				16,
				17,
				18,
				12,
				13,
				14,
				15
			],
			"name":"Armature",
			"scale":[
				0.6278706789016724,
				0.6278706789016724,
				0.6278706789016724
			],
			"translation":[
				0,
				0.4018874764442444,
				0
			]
		}
	],
	"materials":[
		{
			"doubleSided":true,
			"extensions":{
				"KHR_materials_specular":{
					"specularColorFactor":[
						0,
						0,
						0
					]
				},
				"KHR_materials_ior":{
					"ior":1.4500000476837158
				}
			},
			"name":"Wick",
			"pbrMetallicRoughness":{
				"baseColorFactor":[
					0,
					0,
					0,
					1
				],
				"metallicFactor":0,
				"roughnessFactor":0.5
			}
		},
		{
			"doubleSided":true,
			"extensions":{
				"KHR_materials_specular":{
					"specularColorFactor":[
						0,
						0,
						0
					]
				},
				"KHR_materials_ior":{
					"ior":1.4500000476837158
				}
			},
			"name":"Wick",
			"pbrMetallicRoughness":{
				"baseColorFactor":[
					0,
					0,
					0,
					1
				],
				"metallicFactor":0,
				"roughnessFactor":0.5
			}
		},
		{
			"doubleSided":true,
			"extensions":{
				"KHR_materials_unlit":{}
			},
			"name":"Candle",
			"pbrMetallicRoughness":{
				"metallicFactor":0,
				"roughnessFactor":0.9
			}
		}
	],
	"meshes":[
		{
			"name":"Cylinder.003",
			"primitives":[
				{
					"attributes":{
						"POSITION":0,
						"NORMAL":1,
						"TEXCOORD_0":2,
						"JOINTS_0":3,
						"WEIGHTS_0":4
					},
					"indices":5,
					"material":0
				}
			]
		},
		{
			"name":"Sphere",
			"primitives":[
				{
					"attributes":{
						"POSITION":7,
						"NORMAL":8,
						"TEXCOORD_0":9,
						"TANGENT":10
					},
					"indices":11
				}
			]
		},
		{
			"name":"Cylinder.002",
			"primitives":[
				{
					"attributes":{
						"POSITION":12,
						"NORMAL":13,
						"TEXCOORD_0":14
					},
					"indices":15,
					"material":1
				}
			]
		},
		{
			"name":"Cylinder.001",
			"primitives":[
				{
					"attributes":{
						"POSITION":16,
						"NORMAL":17,
						"TEXCOORD_0":18,
						"TANGENT":19
					},
					"indices":20,
					"material":2
				}
			]
		},
		{
			"name":"Cylinder.006",
			"primitives":[
				{
					"attributes":{
						"POSITION":21,
						"NORMAL":22,
						"TEXCOORD_0":23,
						"JOINTS_0":24,
						"WEIGHTS_0":25
					},
					"indices":5,
					"material":0
				}
			]
		},
		{
			"name":"Cylinder.004",
			"primitives":[
				{
					"attributes":{
						"POSITION":26,
						"NORMAL":27,
						"TEXCOORD_0":28,
						"JOINTS_0":29,
						"WEIGHTS_0":30
					},
					"indices":5,
					"material":0
				}
			]
		}
	],
	"skins":[
		{
			"inverseBindMatrices":6,
			"joints":[
				12,
				3,
				5,
				4,
				7,
				6,
				9,
				8,
				13,
				14,
				15
			],
			"name":"Armature"
		}
	],
	"accessors":[
		{
			"bufferView":0,
			"componentType":5126,
			"count":47,
			"max":[
				0.9445393681526184,
				0.8874843716621399,
				-0.2122376412153244
			],
			"min":[
				0.319465309381485,
				-0.11154977977275848,
				-0.607917308807373
			],
			"type":"VEC3"
		},
		{
			"bufferView":1,
			"componentType":5126,
			"count":47,
			"type":"VEC3"
		},
		{
			"bufferView":2,
			"componentType":5126,
			"count":47,
			"type":"VEC2"
		},
		{
			"bufferView":3,
			"componentType":5121,
			"count":47,
			"type":"VEC4"
		},
		{
			"bufferView":4,
			"componentType":5126,
			"count":47,
			"type":"VEC4"
		},
		{
			"bufferView":5,
			"componentType":5123,
			"count":168,
			"type":"SCALAR"
		},
		{
			"bufferView":6,
			"componentType":5126,
			"count":11,
			"type":"MAT4"
		},
		{
			"bufferView":7,
			"componentType":5126,
			"count":992,
			"max":[
				0.9999997019767761,
				1,
				0.9999993443489075
			],
			"min":[
				-0.9999990463256836,
				0,
				-1
			],
			"type":"VEC3"
		},
		{
			"bufferView":8,
			"componentType":5126,
			"count":992,
			"type":"VEC3"
		},
		{
			"bufferView":9,
			"componentType":5126,
			"count":992,
			"type":"VEC2"
		},
		{
			"bufferView":10,
			"componentType":5126,
			"count":992,
			"type":"VEC4"
		},
		{
			"bufferView":11,
			"componentType":5123,
			"count":1440,
			"type":"SCALAR"
		},
		{
			"bufferView":12,
			"componentType":5126,
			"count":32,
			"max":[
				0.8660253882408142,
				1,
				1
			],
			"min":[
				-0.8660253882408142,
				-1,
				-1
			],
			"type":"VEC3"
		},
		{
			"bufferView":13,
			"componentType":5126,
			"count":32,
			"type":"VEC3"
		},
		{
			"bufferView":14,
			"componentType":5126,
			"count":32,
			"type":"VEC2"
		},
		{
			"bufferView":15,
			"componentType":5123,
			"count":96,
			"type":"SCALAR"
		},
		{
			"bufferView":16,
			"componentType":5126,
			"count":938,
			"max":[
				0.9437295198440552,
				1.0144686698913574,
				0.9520947337150574
			],
			"min":[
				-0.9396311044692993,
				-0.9349825978279114,
				-0.951142430305481
			],
			"type":"VEC3"
		},
		{
			"bufferView":17,
			"componentType":5126,
			"count":938,
			"type":"VEC3"
		},
		{
			"bufferView":18,
			"componentType":5126,
			"count":938,
			"type":"VEC2"
		},
		{
			"bufferView":19,
			"componentType":5126,
			"count":938,
			"type":"VEC4"
		},
		{
			"bufferView":20,
			"componentType":5123,
			"count":3576,
			"type":"SCALAR"
		},
		{
			"bufferView":21,
			"componentType":5126,
			"count":47,
			"max":[
				-0.3466171622276306,
				0.8874843716621399,
				-0.16608189046382904
			],
			"min":[
				-0.9416316151618958,
				-0.11154976487159729,
				-0.6083078980445862
			],
			"type":"VEC3"
		},
		{
			"bufferView":22,
			"componentType":5126,
			"count":47,
			"type":"VEC3"
		},
		{
			"bufferView":23,
			"componentType":5126,
			"count":47,
			"type":"VEC2"
		},
		{
			"bufferView":24,
			"componentType":5121,
			"count":47,
			"type":"VEC4"
		},
		{
			"bufferView":25,
			"componentType":5126,
			"count":47,
			"type":"VEC4"
		},
		{
			"bufferView":26,
			"componentType":5126,
			"count":47,
			"max":[
				0.0625540241599083,
				0.8874843716621399,
				1.1109402179718018
			],
			"min":[
				-0.05307670682668686,
				-0.11154977977275848,
				0.4020005762577057
			],
			"type":"VEC3"
		},
		{
			"bufferView":27,
			"componentType":5126,
			"count":47,
			"type":"VEC3"
		},
		{
			"bufferView":28,
			"componentType":5126,
			"count":47,
			"type":"VEC2"
		},
		{
			"bufferView":29,
			"componentType":5121,
			"count":47,
			"type":"VEC4"
		},
		{
			"bufferView":30,
			"componentType":5126,
			"count":47,
			"type":"VEC4"
		}
	],
	"bufferViews":[
		{
			"buffer":0,
			"byteLength":564,
			"byteOffset":0,
			"target":34962
		},
		{
			"buffer":0,
			"byteLength":564,
			"byteOffset":564,
			"target":34962
		},
		{
			"buffer":0,
			"byteLength":376,
			"byteOffset":1128,
			"target":34962
		},
		{
			"buffer":0,
			"byteLength":188,
			"byteOffset":1504,
			"target":34962
		},
		{
			"buffer":0,
			"byteLength":752,
			"byteOffset":1692,
			"target":34962
		},
		{
			"buffer":0,
			"byteLength":336,
			"byteOffset":2444,
			"target":34963
		},
		{
			"buffer":0,
			"byteLength":704,
			"byteOffset":2780
		},
		{
			"buffer":0,
			"byteLength":11904,
			"byteOffset":3484,
			"target":34962
		},
		{
			"buffer":0,
			"byteLength":11904,
			"byteOffset":15388,
			"target":34962
		},
		{
			"buffer":0,
			"byteLength":7936,
			"byteOffset":27292,
			"target":34962
		},
		{
			"buffer":0,
			"byteLength":15872,
			"byteOffset":35228,
			"target":34962
		},
		{
			"buffer":0,
			"byteLength":2880,
			"byteOffset":51100,
			"target":34963
		},
		{
			"buffer":0,
			"byteLength":384,
			"byteOffset":53980,
			"target":34962
		},
		{
			"buffer":0,
			"byteLength":384,
			"byteOffset":54364,
			"target":34962
		},
		{
			"buffer":0,
			"byteLength":256,
			"byteOffset":54748,
			"target":34962
		},
		{
			"buffer":0,
			"byteLength":192,
			"byteOffset":55004,
			"target":34963
		},
		{
			"buffer":0,
			"byteLength":11256,
			"byteOffset":55196,
			"target":34962
		},
		{
			"buffer":0,
			"byteLength":11256,
			"byteOffset":66452,
			"target":34962
		},
		{
			"buffer":0,
			"byteLength":7504,
			"byteOffset":77708,
			"target":34962
		},
		{
			"buffer":0,
			"byteLength":15008,
			"byteOffset":85212,
			"target":34962
		},
		{
			"buffer":0,
			"byteLength":7152,
			"byteOffset":100220,
			"target":34963
		},
		{
			"buffer":0,
			"byteLength":564,
			"byteOffset":107372,
			"target":34962
		},
		{
			"buffer":0,
			"byteLength":564,
			"byteOffset":107936,
			"target":34962
		},
		{
			"buffer":0,
			"byteLength":376,
			"byteOffset":108500,
			"target":34962
		},
		{
			"buffer":0,
			"byteLength":188,
			"byteOffset":108876,
			"target":34962
		},
		{
			"buffer":0,
			"byteLength":752,
			"byteOffset":109064,
			"target":34962
		},
		{
			"buffer":0,
			"byteLength":564,
			"byteOffset":109816,
			"target":34962
		},
		{
			"buffer":0,
			"byteLength":564,
			"byteOffset":110380,
			"target":34962
		},
		{
			"buffer":0,
			"byteLength":376,
			"byteOffset":110944,
			"target":34962
		},
		{
			"buffer":0,
			"byteLength":188,
			"byteOffset":111320,
			"target":34962
		},
		{
			"buffer":0,
			"byteLength":752,
			"byteOffset":111508,
			"target":34962
		}
	],
	"buffers":[
		{
			"byteLength":112260,
			"uri":"wicker-dab3154a148f23d4131e56f743c79af9.bin"
		}
	]
}
