{
	"asset":{
		"generator":"Khronos glTF Blender I/O v3.6.28",
		"version":"2.0"
	},
	"extensionsUsed":[
		"KHR_materials_specular",
		"KHR_materials_ior"
	],
	"scene":0,
	"scenes":[
		{
			"name":"Scene",
			"nodes":[
				0
			]
		}
	],
	"nodes":[
		{
			"mesh":0,
			"name":"Pallet",
			"translation":[
				-0.03271011263132095,
				-0.088283970952034,
				-0.007490606978535652
			]
		}
	],
	"materials":[
		{
			"doubleSided":true,
			"extensions":{
				"KHR_materials_specular":{
					"specularColorFactor":[
						0.4627039075319888,
						0.4627039075319888,
						0.4627039075319888
					]
				},
				"KHR_materials_ior":{
					"ior":1.4500000476837158
				}
			},
			"name":"Pallet_Bottom",
			"pbrMetallicRoughness":{
				"baseColorTexture":{
					"index":0
				},
				"metallicFactor":0,
				"roughnessFactor":0.5
			}
		},
		{
			"doubleSided":true,
			"extensions":{
				"KHR_materials_specular":{
					"specularColorFactor":[
						0,
						0,
						0
					]
				},
				"KHR_materials_ior":{
					"ior":1.4500000476837158
				}
			},
			"name":"Pallet_Top",
			"pbrMetallicRoughness":{
				"baseColorTexture":{
					"index":1
				},
				"metallicFactor":0,
				"roughnessFactor":0.5
			}
		}
	],
	"meshes":[
		{
			"name":"Cube.001",
			"primitives":[
				{
					"attributes":{
						"POSITION":0,
						"NORMAL":1,
						"TEXCOORD_0":2,
						"TANGENT":3
					},
					"indices":4,
					"material":0
				},
				{
					"attributes":{
						"POSITION":5,
						"NORMAL":6,
						"TEXCOORD_0":7,
						"TANGENT":8
					},
					"indices":9,
					"material":1
				}
			]
		}
	],
	"textures":[
		{
			"sampler":0,
			"source":0
		},
		{
			"sampler":0,
			"source":1
		}
	],
	"images":[
		{
			"mimeType":"image/png",
			"name":"wood_pallet.png",
			"uri":"../../assets/models/-%20Classic%2064%20Asset%20Pack%200.6/-%20Classic%2064%20Asset%20Pack%200.6/Wood/Materials/wood_pallet.png"
		},
		{
			"mimeType":"image/png",
			"name":"plywood.png",
			"uri":"../../assets/models/-%20Classic%2064%20Asset%20Pack%200.6/-%20Classic%2064%20Asset%20Pack%200.6/Wood/Materials/plywood.png"
		}
	],
	"accessors":[
		{
			"bufferView":0,
			"componentType":5126,
			"count":220,
			"max":[
				1.532710075378418,
				0.06883693486452103,
				1.507490634918213
			],
			"min":[
				-1.4672900438308716,
				-0.10038845241069794,
				-1.492509365081787
			],
			"type":"VEC3"
		},
		{
			"bufferView":1,
			"componentType":5126,
			"count":220,
			"type":"VEC3"
		},
		{
			"bufferView":2,
			"componentType":5126,
			"count":220,
			"type":"VEC2"
		},
		{
			"bufferView":3,
			"componentType":5126,
			"count":220,
			"type":"VEC4"
		},
		{
			"bufferView":4,
			"componentType":5123,
			"count":342,
			"type":"SCALAR"
		},
		{
			"bufferView":5,
			"componentType":5126,
			"count":20,
			"max":[
				1.532710075378418,
				0.18201017379760742,
				1.5074903964996338
			],
			"min":[
				-1.4672898054122925,
				0.06883692741394043,
				-1.4925096035003662
			],
			"type":"VEC3"
		},
		{
			"bufferView":6,
			"componentType":5126,
			"count":20,
			"type":"VEC3"
		},
		{
			"bufferView":7,
			"componentType":5126,
			"count":20,
			"type":"VEC2"
		},
		{
			"bufferView":8,
			"componentType":5126,
			"count":20,
			"type":"VEC4"
		},
		{
			"bufferView":9,
			"componentType":5123,
			"count":30,
			"type":"SCALAR"
		}
	],
	"bufferViews":[
		{
			"buffer":0,
			"byteLength":2640,
			"byteOffset":0,
			"target":34962
		},
		{
			"buffer":0,
			"byteLength":2640,
			"byteOffset":2640,
			"target":34962
		},
		{
			"buffer":0,
			"byteLength":1760,
			"byteOffset":5280,
			"target":34962
		},
		{
			"buffer":0,
			"byteLength":3520,
			"byteOffset":7040,
			"target":34962
		},
		{
			"buffer":0,
			"byteLength":684,
			"byteOffset":10560,
			"target":34963
		},
		{
			"buffer":0,
			"byteLength":240,
			"byteOffset":11244,
			"target":34962
		},
		{
			"buffer":0,
			"byteLength":240,
			"byteOffset":11484,
			"target":34962
		},
		{
			"buffer":0,
			"byteLength":160,
			"byteOffset":11724,
			"target":34962
		},
		{
			"buffer":0,
			"byteLength":320,
			"byteOffset":11884,
			"target":34962
		},
		{
			"buffer":0,
			"byteLength":60,
			"byteOffset":12204,
			"target":34963
		}
	],
	"samplers":[
		{
			"magFilter":9728,
			"minFilter":9984
		}
	],
	"buffers":[
		{
			"byteLength":12264,
			"uri":"Wood_Pallet-e77fdc53ca5b7457cf77686f8e956efe.bin"
		}
	]
}
